<?xml version="1.0" encoding="UTF-8" standalone="no"?>
<svg width="900" height="900" viewBox="0 0 900 900" version="1.1" xml:space="preserve" id="SVGRoot"
  inkscape:export-filename="CaffyIconMonoline.svg" inkscape:export-xdpi="96" inkscape:export-ydpi="96"
  xmlns:inkscape="http://www.inkscape.org/namespaces/inkscape"
  xmlns:sodipodi="http://sodipodi.sourceforge.net/DTD/sodipodi-0.dtd" xmlns="http://www.w3.org/2000/svg"
  xmlns:svg="http://www.w3.org/2000/svg">
  <defs id="defs3" />
  <sodipodi:namedview pagecolor="#a9a9a9" bordercolor="#292929" borderopacity="1" inkscape:showpageshadow="2"
    inkscape:pageopacity="0.0" inkscape:pagecheckerboard="0" inkscape:deskcolor="#232323" id="namedview1" />
  <style type="text/css" id="style1">
    g.prefab path {
      vector-effect: non-scaling-stroke;
      -inkscape-stroke: hairline;
      fill: none;
      fill-opacity: 1;
      stroke-opacity: 1;
      stroke: #00349c;
    }
  </style>
  <path
    d="m 454.85719,70.247767 c -12.41429,11.198922 -21.8395,25.317495 -27.42204,41.077123 -4.03286,10.72257 -6.20328,22.05572 -6.41743,33.50962 0.21432,11.4534 2.38472,22.78604 6.41743,33.50815 5.58214,15.7595 15.00678,29.878 27.42057,41.07712 12.40468,-11.20198 21.82055,-25.32023 27.39555,-41.07712 3.81287,-10.74866 5.76888,-22.06791 5.78422,-33.47281 v -0.0707 C 488.0203,133.39381 486.0643,122.07403 482.25127,111.32491 476.6767,95.568205 467.2613,81.449913 454.85719,70.247786 Z"
    style="vector-effect:non-scaling-stroke;fill:#fed462;fill-opacity:1;stroke:none;stroke-width:0.753952;-inkscape-stroke:hairline"
    id="path11" inkscape:label="steam_little" />
  <path
    d="m 387.50957,44.307119 c -11.4538,0.214155 -22.78714,2.384594 -33.50962,6.417423 -28.22982,10.146309 -50.45403,32.370519 -60.60035,60.600348 -4.03283,10.72251 -6.20326,22.05579 -6.41742,33.50962 0.21432,11.45333 2.38475,22.78611 6.41742,33.50815 10.14636,28.22993 32.37041,50.454 60.60035,60.60035 10.71837,4.03136 22.04696,6.20176 33.49636,6.41742 h 0.0486 c 0.25822,-0.01 0.51642,-0.0206 0.77456,-0.0324 -15.13133,-19.75976 -25.67062,-42.64277 -30.85164,-66.98538 -2.27875,-11.02446 -3.4406,-22.25066 -3.46789,-33.50815 0.0277,-11.25804 1.19002,-22.48469 3.46936,-33.50962 5.18032,-24.34169 15.71871,-47.224413 30.84871,-66.9839 -0.26944,-0.01239 -0.53892,-0.02372 -0.80845,-0.03388 z"
    style="vector-effect:non-scaling-stroke;fill:#fed462;fill-opacity:1;stroke:none;stroke-width:0.753952;-inkscape-stroke:hairline"
    id="path10" inkscape:label="steam_large" />
  <g id="g7" transform="translate(-89.32579,532.59755)" style="display:inline" inkscape:label="body">
    <path
      d="m 476.74436,-139.58046 c -12.00173,5.37534 -23.32957,12.14546 -33.74818,20.16968 -12.34763,9.32963 -23.34359,20.325589 -32.67322,32.673207 l -0.0264,0.03385 c -15.13003,19.759523 -25.66837,42.642163 -30.8487,66.983903 -2.27934,11.0248805 -3.44167,22.2516321 -3.46936,33.50962 4.5e-4,18.503406 14.99885,33.504452 33.50225,33.50815 h 0.028 c 18.49763,-0.01181 33.48706,-15.010474 33.48752,-33.50813 0.21414,-11.453916 2.38454,-22.7870286 6.41742,-33.509621 5.5825,-15.759501 15.00785,-29.878292 27.42204,-41.077121 12.40384,11.201876 21.81963,25.320766 27.39408,41.077121 h 5.78423 63.60879 c -4.96892,-24.292915 -15.26884,-47.18179 -30.15517,-67.011882 l -0.006,-0.006 c -9.51115,-12.675091 -20.77307,-23.937507 -33.44785,-33.449137 -10.30739,-7.72161 -21.47146,-14.22941 -33.26959,-19.39364 z"
      style="vector-effect:non-scaling-stroke;fill:#fed462;fill-opacity:1;stroke:none;stroke-width:0.753952;-inkscape-stroke:hairline"
      id="path7" inkscape:label="coffee_up" />
    <path
      d="m 543.52356,-19.719801 c -18.50594,4.55e-4 -33.5085,15.0036783 -33.50815,33.509621 l -0.002,0.03533 c -0.0154,11.404675 -1.97142,22.724342 -5.78422,33.472799 -5.5749,15.756606 -14.9911,29.875353 -27.39555,41.077131 C 464.41991,77.175956 454.99527,63.05746 449.41313,47.29795 h -6.41739 -33.48754 l -0.0206,0.0019 -0.008,-0.0019 h -30.03437 c 5.18104,24.342658 15.72029,47.225574 30.85164,66.98538 l 0.0251,0.0324 c 9.32971,12.34772 20.32549,23.3435 32.67321,32.6732 10.41869,8.02429 21.74636,14.7943 33.74818,20.16969 11.79823,-5.16428 22.96213,-11.67198 33.26959,-19.39364 12.67484,-9.51167 23.93667,-20.774 33.44777,-33.44925 l 0.005,-0.005 c 14.88709,-19.830442 25.18748,-42.719756 30.1566,-67.013358 2.25941,-11.026274 3.40205,-22.252765 3.41045,-33.508149 3.6e-4,-18.5065133 -15.00311,-33.509988 -33.50962,-33.50962 z"
      style="vector-effect:non-scaling-stroke;fill:#fed462;fill-opacity:1;stroke:none;stroke-width:0.753952;-inkscape-stroke:hairline"
      id="path6" inkscape:label="coffee_bottom" />
    <path
      d="m 645.29374,-219.99084 v 0.3063 h -1.32383 v 3.46495 63.55283 67.017766 3.464951 30.044676 33.50814 67.017769 33.509631 c -0.009,11.232617 -1.14567,22.436917 -3.39573,33.441887 l -0.0142,0.0664 c -4.96973,24.2951 -15.27205,47.18676 -30.16103,67.01777 -9.51041,12.67417 -20.77256,23.93676 -33.44631,33.44775 -19.83135,14.88852 -42.72396,25.19051 -67.01925,30.15955 -11.02584,2.25987 -22.25305,3.40305 -33.50814,3.41192 -11.25744,-0.0285 -22.48535,-1.1911 -33.50963,-3.47083 -24.35457,-5.1832 -47.25176,-15.73196 -67.01777,-30.87521 -12.34693,-9.32907 -23.34408,-20.32626 -32.6732,-32.67318 -15.14355,-19.76564 -25.69309,-42.66336 -30.87668,-67.01777 l -0.0648,-0.21486 c -2.2425,-10.9555 -3.38272,-22.110554 -3.4031,-33.293166 V 48.386833 -18.630937 -52.13908 c 0.0208,-11.183442 1.16144,-22.339863 3.40457,-33.296108 l 0.0648,-0.213429 c 5.183,-24.353553 15.73265,-47.252593 30.87521,-67.017773 9.32872,-12.34641 20.32679,-23.34448 32.6732,-32.67322 19.76502,-15.14243 42.66443,-25.69226 67.01777,-30.87519 11.02381,-2.27913 22.25279,-3.4417 33.50963,-3.46937 H 442.91517 375.8974 312.53305 c -1.23104,1.20424 -2.4492,2.4224 -3.65342,3.65342 -18.03346,18.55223 -32.87782,39.9675 -43.9221,63.36436 -10.13539,21.18661 -17.03323,43.78273 -20.45831,67.017773 -1.67917,11.091279 -2.56074,22.29222 -2.63736,33.50962 v 33.508147 67.01776 33.50963 c 0.0767,11.21715 0.95823,22.41715 2.63736,33.50818 3.42519,23.23589 10.32255,45.83038 20.45831,67.01776 11.04489,23.39735 25.88802,44.81032 43.9221,63.36287 1.20522,1.23213 2.42427,2.45116 3.65637,3.65636 18.55225,18.03346 39.96465,32.87604 63.3614,43.92065 21.18746,10.13633 43.78163,17.03408 67.01777,20.45977 11.09174,1.67926 22.29176,2.56074 33.50963,2.63737 11.21406,-0.0308 22.41355,-0.8661 33.50814,-2.49893 23.22158,-3.33456 45.81526,-10.1352 67.01925,-20.17265 23.49468,-11.15569 44.97384,-26.14385 63.55137,-44.34621 1.16747,-1.14328 2.32312,-2.29896 3.4664,-3.46641 18.20267,-18.57811 33.19059,-40.05742 44.34621,-63.55282 10.03745,-21.20376 16.83792,-43.79644 20.17265,-67.01776 0.0142,-0.10116 0.0199,-0.20347 0.034,-0.30483 h 3.78743 33.49048 c 0.002,6e-5 0.003,-3e-5 0.006,0 h 0.0485 c 11.40451,-0.0142 22.7245,-1.97148 33.47281,-5.78422 28.60592,-10.122545 51.11097,-32.627621 61.23354,-61.233575 3.81719,-10.759336 5.77388,-22.091713 5.7857,-33.508139 l -0.003,-0.0604 0.003,-0.0019 V -18.937147 -85.95491 -119.4027 l -0.003,-0.002 0.003,-0.0589 c -0.0114,-11.41673 -1.96839,-22.74994 -5.7857,-33.50962 -10.12279,-28.6055 -32.62847,-51.11119 -61.23394,-61.23355 -10.75927,-3.81663 -22.09197,-5.77292 -33.50814,-5.78424 h -33.5096 z m 65.69394,67.01778 h 1.32386 33.50959 c 0.57807,0 1.15203,0.0142 1.72292,0.0441 0.006,5e-5 0.009,0.002 0.0142,0.002 17.69078,0.90383 31.76133,15.52808 31.77199,33.44338 l 0.002,0.0199 -0.002,0.009 v 33.500793 5.784228 55.449325 5.784223 33.502245 l 0.002,0.0087 -0.002,0.01994 c -0.0114,18.481394 -14.98558,33.462925 -33.46397,33.487512 l -0.0442,0.0019 -0.009,-0.0019 h -0.009 -33.4949 -1.32238 V -18.63125 -52.13939 -85.649018 -152.66679 Z"
      style="display:inline;vector-effect:non-scaling-stroke;fill:#fed462;fill-opacity:1;stroke:none;stroke-width:0.753951;-inkscape-stroke:hairline"
      id="path654" inkscape:label="cup" />
  </g>
</svg>
