<svg width="192" height="192" viewBox="0 0 192 192" fill="none" xmlns="http://www.w3.org/2000/svg">
  <g clip-path="url(#clip0_548_3704)">
    <rect width="192" height="192" fill="white" />
    <g clip-path="url(#clip1_548_3704)">
      <g clip-path="url(#clip2_548_3704)">
        <g clip-path="url(#clip3_548_3704)">
          <rect width="192" height="192" fill="url(#paint0_linear_548_3704)" />
        </g>
      </g>
      <path
        d="M96.6261 47.0542C95.026 48.4976 93.8112 50.3173 93.0917 52.3486C92.5719 53.7306 92.2921 55.1913 92.2645 56.6676C92.2921 58.1438 92.5719 59.6044 93.0917 60.9864C93.8111 63.0176 95.0259 64.8373 96.6259 66.2808C98.2247 64.837 99.4383 63.0173 100.157 60.9864C100.648 59.601 100.9 58.1421 100.902 56.6721V56.663C100.9 55.193 100.648 53.734 100.157 52.3486C99.4384 50.3177 98.2248 48.498 96.6261 47.0542Z"
        fill="#FED462" />
      <path
        d="M87.9456 43.7107C86.4694 43.7383 85.0086 44.018 83.6266 44.5378C79.9881 45.8456 77.1237 48.71 75.8159 52.3485C75.2961 53.7306 75.0164 55.1913 74.9888 56.6676C75.0164 58.1438 75.2961 59.6044 75.8159 60.9864C77.1237 64.6249 79.9881 67.4893 83.6266 68.7971C85.0081 69.3167 86.4682 69.5964 87.9439 69.6242H87.9502C87.9835 69.6229 88.0167 69.6216 88.05 69.6201C86.0998 67.0732 84.7414 64.1239 84.0736 60.9864C83.7799 59.5655 83.6301 58.1185 83.6266 56.6676C83.6302 55.2165 83.78 53.7695 84.0738 52.3485C84.7415 49.2112 86.0997 46.2618 88.0498 43.7151C88.0151 43.7135 87.9804 43.712 87.9456 43.7107Z"
        fill="#FED462" />
      <path
        d="M87.9339 88.6555C86.387 89.3483 84.927 90.2209 83.5841 91.2552C81.9927 92.4577 80.5754 93.8749 79.3729 95.4664L79.3695 95.4707C77.4194 98.0175 76.0611 100.967 75.3935 104.104C75.0997 105.525 74.9499 106.972 74.9463 108.423C74.9463 110.808 76.8795 112.742 79.2644 112.742H79.268C81.6521 112.741 83.5841 110.807 83.5841 108.423C83.6117 106.947 83.8915 105.486 84.4113 104.104C85.1308 102.073 86.3456 100.253 87.9457 98.8098C89.5444 100.254 90.758 102.073 91.4765 104.104H92.222H100.42C99.78 100.973 98.4525 98.023 96.5338 95.4671L96.533 95.4664C95.3071 93.8327 93.8556 92.3811 92.222 91.1551C90.8934 90.1599 89.4545 89.3211 87.9339 88.6555Z"
        fill="#FED462" />
      <path
        d="M96.5409 104.104C94.1557 104.104 92.2221 106.038 92.2221 108.423L92.2219 108.428C92.2199 109.898 91.9678 111.357 91.4763 112.742C90.7578 114.773 89.5441 116.593 87.9454 118.036C86.3454 116.593 85.1306 114.773 84.4112 112.742H83.584H79.2679L79.2652 112.742L79.2642 112.742H75.3931C76.0608 115.88 77.4192 118.829 79.3695 121.376L79.3727 121.38C80.5752 122.971 81.9925 124.389 83.5839 125.591C84.9268 126.625 86.3868 127.498 87.9337 128.191C89.4544 127.525 90.8933 126.686 92.2218 125.691C93.8554 124.465 95.307 123.014 96.5328 121.38L96.5335 121.379C98.4523 118.823 99.7799 115.873 100.42 112.742C100.712 111.321 100.859 109.874 100.86 108.423C100.86 106.038 98.9262 104.104 96.5409 104.104Z"
        fill="#FED462" />
      <path
        d="M109.658 78.2915V78.331H109.487V78.7776V86.9689V95.6067V96.0533V99.9257V104.245V112.882V117.201C109.486 118.649 109.34 120.093 109.05 121.512L109.048 121.52C108.407 124.652 107.08 127.602 105.16 130.158C103.935 131.792 102.483 133.243 100.85 134.469C98.2936 136.388 95.343 137.716 92.2116 138.356C90.7905 138.648 89.3434 138.795 87.8928 138.796C86.4418 138.792 84.9947 138.643 83.5738 138.349C80.4347 137.681 77.4835 136.321 74.9359 134.369C73.3445 133.167 71.9271 131.749 70.7247 130.158C68.7729 127.611 67.4131 124.659 66.745 121.52L66.7367 121.493C66.4476 120.081 66.3007 118.643 66.2981 117.201V112.882V104.245V99.9258C66.3007 98.4843 66.4478 97.0464 66.7369 95.6343L66.7452 95.6067C67.4133 92.4678 68.773 89.5164 70.7247 86.9689C71.9271 85.3776 73.3446 83.9601 74.9359 82.7577C77.4834 80.806 80.4349 79.4462 83.5738 78.7782C84.9946 78.4845 86.4419 78.3346 87.8928 78.3311H83.5737H74.9358H66.7689C66.6102 78.4863 66.4532 78.6433 66.298 78.8019C63.9737 81.1931 62.0604 83.9533 60.6369 86.9689C59.3306 89.6996 58.4415 92.612 58.0001 95.6067C57.7837 97.0363 57.67 98.48 57.6602 99.9258V104.245V112.882V117.201C57.67 118.647 57.7837 120.091 58.0001 121.52C58.4416 124.515 59.3305 127.427 60.6369 130.158C62.0605 133.174 63.9736 135.934 66.298 138.325C66.4533 138.484 66.6105 138.641 66.7693 138.796C69.1604 141.12 71.9203 143.034 74.9358 144.457C77.6667 145.764 80.5788 146.653 83.5737 147.094C85.0033 147.311 86.4469 147.424 87.8927 147.434C89.3381 147.43 90.7816 147.322 92.2115 147.112C95.2045 146.682 98.1166 145.806 100.85 144.512C103.878 143.074 106.646 141.142 109.041 138.796C109.191 138.649 109.34 138.5 109.487 138.349C111.834 135.955 113.765 133.186 115.203 130.158C116.497 127.425 117.373 124.513 117.803 121.52C117.805 121.507 117.806 121.494 117.808 121.481H118.296H122.612C122.613 121.481 122.613 121.481 122.613 121.481H122.619C124.089 121.479 125.548 121.227 126.934 120.735C130.621 119.431 133.521 116.53 134.826 112.843C135.318 111.456 135.57 109.996 135.572 108.524L135.571 108.517L135.572 108.516V104.205V95.5673V91.2562L135.571 91.256L135.572 91.2484C135.57 89.7769 135.318 88.3162 134.826 86.9294C133.521 83.2424 130.62 80.3417 126.934 79.037C125.547 78.5451 124.086 78.293 122.615 78.2915H118.296L109.658 78.2915ZM118.125 86.9294H118.296H122.615C122.689 86.9294 122.763 86.9312 122.837 86.9351C122.838 86.9351 122.838 86.9353 122.839 86.9353C125.119 87.0518 126.932 88.9367 126.934 91.2458L126.934 91.2484L126.934 91.2495V95.5674V96.3129V103.46V104.205V108.523L126.934 108.524L126.934 108.527C126.932 110.909 125.002 112.84 122.621 112.843L122.615 112.843L122.614 112.843H122.613H118.296H118.125V104.245V99.9257V95.6067V86.9688L118.125 86.9294Z"
        fill="#FED462" />
    </g>
  </g>
  <defs>
    <linearGradient id="paint0_linear_548_3704" x1="96" y1="0" x2="96" y2="192" gradientUnits="userSpaceOnUse">
      <stop stop-color="#7F3C05" />
      <stop offset="1" stop-color="#DB5309" />
    </linearGradient>
    <clipPath id="clip0_548_3704">
      <rect width="192" height="192" fill="white" />
    </clipPath>
    <clipPath id="clip1_548_3704">
      <rect width="192" height="192" fill="white" />
    </clipPath>
    <clipPath id="clip2_548_3704">
      <rect width="192" height="192" fill="white" />
    </clipPath>
    <clipPath id="clip3_548_3704">
      <rect width="192" height="192" fill="white" />
    </clipPath>
  </defs>
</svg>